# xmcd CD database file
#
# Track frame offsets:
#	150
#	10932
#	28350
#	45880
#	59695
#	72327
#	86002
#	102422
#	116542
#	129382
#	143815
#	166725
#	178587
#	191800
#
# Disc length: 2725 seconds
#
# Revision: 0
# Processed by: cddbd v1.4PL0 Copyright (c) Steve Scherf et al.
# Submitted via: CDex 1.50beta9
#
DISCID=c20aa30e
DTITLE=HUGO DUNCAN - IRELAND'S FAVOURITE SINGER
DYEAR=1900
DGENRE=Country
TTITLE0=By The Bright Silvery Light Of The Moon
TTITLE1=Sweet Forget Me Not
TTITLE2=Part Of Me
TTITLE3=Boyle In The Co. Roscommon
TTITLE4=Two Little Girls In Blue
TTITLE5=The Clock In The Tower
TTITLE6=Little Town In The Old Co.Down
TTITLE7=Back Home To Glenamddy
TTITLE8=Home To Donegal
TTITLE9=Old Pals Are Always The Best
TTITLE10=The Black Sheep
TTITLE11=I Can't Help It
TTITLE12=Old Cross Of Ardboe
TTITLE13=Killarney In My Dreams
EXTD=
EXTT0=
EXTT1=
EXTT2=
EXTT3=
EXTT4=
EXTT5=
EXTT6=
EXTT7=
EXTT8=
EXTT9=
EXTT10=
EXTT11=
EXTT12=
EXTT13=
PLAYORDER=
